<svg width="22" height="22" viewBox="0 0 22 22" fill="none" xmlns="http://www.w3.org/2000/svg">
<path d="M11 0C17.0731 0 22 4.92691 22 11C22 17.0731 17.0731 22 11 22C4.92691 22 0 17.0731 0 11C0 4.92691 4.92691 0 11 0ZM11 1.72949C5.88221 1.72949 1.72949 5.88221 1.72949 11C1.72949 16.1178 5.88221 20.2705 11 20.2705C16.1178 20.2705 20.2705 16.1178 20.2705 11C20.2705 5.88221 16.1178 1.72949 11 1.72949Z" fill="white"/>
<path d="M8.90544 15.1406L14.9469 11.4909C15.1182 11.3866 15.2227 11.2005 15.2227 11C15.2227 10.7995 15.1182 10.6134 14.9469 10.5091L8.90544 6.85937C8.72913 6.75374 8.50955 6.7514 8.33102 6.85324C8.1525 6.95509 8.04276 7.14529 8.04395 7.35082V14.6492C8.04276 14.8547 8.1525 15.0449 8.33102 15.1468C8.50955 15.2486 8.72913 15.2463 8.90544 15.1406Z" fill="white"/>
</svg>
