<svg width="40" height="40" viewBox="0 0 40 40" fill="none" xmlns="http://www.w3.org/2000/svg">
<circle cx="20" cy="20" r="20" fill="white"/>
<path d="M18.4922 11C22.6299 11.0003 25.9841 14.3544 25.9844 18.4922C25.9844 20.3062 25.3394 21.9694 24.2666 23.2656L28.793 27.792C29.0692 28.0683 29.0693 28.5167 28.793 28.793C28.5205 29.0655 28.0809 29.0686 27.8037 28.8037L27.792 28.793L23.2656 24.2666C21.9694 25.3394 20.3062 25.9844 18.4922 25.9844C14.3544 25.9843 11 22.63 11 18.4922C11 14.3544 14.3544 11 18.4922 11ZM18.4922 12.415C15.136 12.4151 12.4151 15.136 12.415 18.4922C12.415 21.8484 15.136 24.5693 18.4922 24.5693C21.8484 24.5693 24.5693 21.8484 24.5693 18.4922C24.5691 15.1361 21.8483 12.4153 18.4922 12.415Z" fill="#141E28"/>
</svg>
